# xmcd
#
# Track frame offsets:
#	150
#	9699
#	24544
#	46309
#	72972
#	92592
#
# Disc length: 1313 seconds
#
# Revision: 0
# Processed by: cddbd v1.4PL0 Copyright (c) Steve Scherf et al.
# Submitted via: EasyCDDAExtractor 4.5.0.2
#
DISCID=44051f06
DTITLE=Sylvie Peron - Ohbobabebop
DYEAR=1900
DGENRE=
TTITLE0=Improvised Intro
TTITLE1=La Pluie
TTITLE2=Ohbobabebop
TTITLE3=Samedi en Septembre
TTITLE4=Aguacero
TTITLE5=Funked Out
EXTD=
EXTT0=
EXTT1=
EXTT2=
EXTT3=
EXTT4=
EXTT5=
PLAYORDER=
